<svg width="69" height="61" viewBox="0 0 69 61" fill="none" xmlns="http://www.w3.org/2000/svg">
<path d="M64.4404 51.7963H59.8386V44.3071C59.9388 37.9118 54.5861 32.3286 48.312 31.3234C48.3495 31.2854 48.3305 29.1756 48.3341 29.0589C50.3392 28.2747 52.112 26.9932 53.4865 25.3359H56.3873C57.4103 25.3334 58.4036 24.9893 59.2095 24.3586C60.0148 23.7279 60.587 22.846 60.8355 21.8537C67.1275 21.9318 67.1223 12.6321 60.8355 12.7123V12.7118C60.6152 11.8397 60.1437 11.0519 59.4791 10.4459C57.719 6.30215 54.3966 3.01935 50.2324 1.30905C46.0676 -0.401765 41.3971 -0.401765 37.2323 1.30905C33.0681 3.01935 29.7457 6.30228 27.9856 10.4459C27.321 11.0519 26.8495 11.8398 26.6292 12.7118C20.3372 12.6342 20.3424 21.934 26.6292 21.8532V21.8537C26.8778 22.8465 27.451 23.7284 28.2573 24.3591C29.0637 24.9898 30.057 25.3339 31.0811 25.336L33.9701 25.3267C35.3456 26.9887 37.1216 28.2732 39.1307 29.059C39.1343 29.1766 39.1159 31.2864 39.1528 31.323V31.3225C37.0491 31.6882 35.0528 32.5135 33.306 33.7405C32.4411 32.7868 31.2147 32.2419 29.9271 32.2388H23.8389C24.1856 31.2337 24.9052 30.4001 25.8486 29.9096C26.2497 29.7047 26.4937 29.2851 26.4747 28.8357C26.4552 28.3858 26.1758 27.9887 25.7587 27.8187C23.8122 27.0026 21.6176 27.0124 19.6788 27.846C17.7395 28.6795 16.2218 30.2649 15.4745 32.2387H9.21893C7.99863 32.2397 6.82914 32.7251 5.96637 33.588C5.1036 34.4508 4.61817 35.6203 4.61712 36.8405V43.7432C4.61815 44.9635 5.10349 46.133 5.96637 46.9958C6.82925 47.8586 7.99866 48.344 9.21893 48.345H27.6262V51.7964H4.61712C2.97309 51.7964 1.45384 52.6736 0.631694 54.0973C-0.190057 55.521 -0.190057 57.2754 0.631694 58.6991C1.45396 60.1228 2.97322 61 4.61712 61H64.4406C66.0744 60.9851 67.5781 60.1048 68.3906 58.6867C69.2032 57.2692 69.2032 55.5271 68.3906 54.1096C67.5781 52.6916 66.0744 51.8114 64.4406 51.7964L64.4404 51.7963ZM63.29 17.2828C63.2889 17.8929 63.0465 18.4774 62.6151 18.9088C62.1837 19.3402 61.5992 19.5826 60.9891 19.5837V14.9818C61.5992 14.9829 62.1837 15.2253 62.6151 15.6567C63.0465 16.0881 63.2889 16.6726 63.29 17.2827V17.2828ZM24.1746 17.2828C24.1756 16.6726 24.4181 16.0882 24.8495 15.6568C25.2809 15.2254 25.8654 14.9829 26.4755 14.9819V19.5837C25.8653 19.5827 25.2809 19.3403 24.8495 18.9088C24.4181 18.4774 24.1756 17.893 24.1746 17.2828V17.2828ZM58.6882 20.7341C58.6871 21.3443 58.4447 21.9287 58.0133 22.3601C57.5819 22.7915 56.9974 23.034 56.3873 23.035H54.9903C56.8331 19.4214 56.8331 15.1441 54.9903 11.5305H56.3873C56.9974 11.5315 57.5819 11.7739 58.0133 12.2054C58.4447 12.6368 58.6871 13.2212 58.6882 13.8314V20.7341ZM43.7323 2.32691C48.8287 2.34643 53.5682 4.94415 56.3261 9.22962H53.4864C51.0678 6.3406 47.4933 4.67199 43.7261 4.67409C39.9584 4.67563 36.3853 6.34744 33.9699 9.23895L31.1385 9.22971H31.138C33.896 4.94424 38.6359 2.34646 43.7323 2.327L43.7323 2.32691ZM31.0773 23.035C30.4672 23.034 29.8827 22.7916 29.4513 22.3602C29.0199 21.9288 28.7775 21.3443 28.7765 20.7342V13.8314C28.777 13.2218 29.0194 12.6379 29.4498 12.2065C29.8807 11.7751 30.4646 11.5321 31.0738 11.5306L32.4718 11.5352H32.4724C30.6322 15.1463 30.6322 19.42 32.4724 23.0305L31.0773 23.035ZM33.3782 17.2828C33.3813 14.5376 34.4732 11.9059 36.4141 9.96459C38.3555 8.02368 40.9871 6.93187 43.7323 6.92871C57.468 7.49726 57.4641 27.0715 43.7323 27.6368C40.9871 27.6338 38.3554 26.5419 36.4141 24.601C34.4732 22.6595 33.3814 20.028 33.3782 17.2828ZM43.7323 29.9377C44.5042 29.9347 45.2746 29.8612 46.0332 29.7179V31.0882C46.0332 31.9105 45.5946 32.67 44.8827 33.0809C44.1709 33.4918 43.2937 33.4918 42.5818 33.0809C41.87 32.67 41.4314 31.9104 41.4314 31.0882V29.7179C42.19 29.8612 42.9604 29.9347 43.7323 29.9377ZM39.8582 33.5406C40.7077 34.8569 42.1664 35.6524 43.7328 35.6534C45.2993 35.6545 46.7595 34.861 47.6104 33.5457C49.9375 33.8955 52.1157 34.9057 53.886 36.4557C52.0345 39.9246 48.542 42.209 44.6223 42.5157C40.7026 42.8223 36.8968 41.1084 34.5285 37.9704C34.5702 37.2411 34.526 36.5098 34.3966 35.7912C36.0056 34.6059 37.8808 33.8328 39.8581 33.5407L39.8582 33.5406ZM6.91719 43.7432V36.8405C6.91822 36.2303 7.16064 35.6458 7.59205 35.2144C8.02347 34.783 8.60795 34.5406 9.21807 34.5396H16.3252C16.8547 34.5401 17.316 34.1785 17.4423 33.6644C17.7227 32.4749 18.3996 31.4164 19.3622 30.6635C20.3246 29.9106 21.5152 29.5079 22.737 29.5223C21.8433 30.5207 20.2214 34.2925 22.5187 34.5396H29.9263C30.5365 34.5406 31.1209 34.783 31.5523 35.2144C31.9837 35.6459 32.2262 36.2303 32.2272 36.8405V43.7432C32.2262 44.3533 31.9837 44.9378 31.5523 45.3692C31.1209 45.8006 30.5364 46.043 29.9263 46.0441H9.21818C8.60804 46.043 8.02357 45.8006 7.59217 45.3692C7.16077 44.9378 6.91833 44.3533 6.91731 43.7432L6.91719 43.7432ZM29.9262 48.345C31.1465 48.3439 32.316 47.8586 33.1788 46.9957C34.0415 46.1328 34.527 44.9634 34.528 43.7432V41.3622C37.5941 44.0724 41.6999 45.2912 45.748 44.6939C49.7967 44.0966 53.3749 41.7433 55.5274 38.2627C56.8222 40.0129 57.5257 42.13 57.5371 44.3072V51.7965H29.9262V48.345ZM64.4398 58.699H4.61629C3.8007 58.6898 3.05088 58.2491 2.64566 57.5409C2.24044 56.8331 2.24044 55.9631 2.64566 55.2553C3.05088 54.5471 3.80074 54.1064 4.61629 54.0972H64.4398C65.2553 54.107 66.0046 54.5476 66.4099 55.2553C66.8146 55.9636 66.8146 56.8326 66.4099 57.5409C66.0046 58.2486 65.2553 58.6893 64.4398 58.699Z" fill="url(#paint0_linear_39_843)"/>
<path d="M29.9269 40.2918C29.9269 39.9867 29.8057 39.694 29.59 39.4783C29.3743 39.2626 29.0816 39.1414 28.7765 39.1414H27.626C26.9907 39.1414 26.4756 39.6565 26.4756 40.2918C26.4756 40.9271 26.9907 41.4423 27.626 41.4423H28.7765C29.0816 41.4423 29.3743 41.3211 29.59 41.1053C29.8057 40.8896 29.9269 40.5969 29.9269 40.2918Z" fill="url(#paint1_linear_39_843)"/>
<path d="M17.5597 39.14H15.5464C14.9111 39.14 14.396 39.6551 14.396 40.2904C14.396 40.9257 14.9111 41.4409 15.5464 41.4409H17.5597C18.1888 41.4321 18.6942 40.9196 18.6942 40.2904C18.6942 39.6612 18.1888 39.1487 17.5597 39.14Z" fill="url(#paint2_linear_39_843)"/>
<path d="M23.6 39.14H21.5867C20.9514 39.14 20.4363 39.6551 20.4363 40.2904C20.4363 40.9257 20.9514 41.4409 21.5867 41.4409H23.6C24.2291 41.4321 24.7345 40.9196 24.7345 40.2904C24.7345 39.6612 24.2291 39.1487 23.6 39.14Z" fill="url(#paint3_linear_39_843)"/>
<path d="M11.5194 39.14H10.3689C9.73975 39.1487 9.23438 39.6612 9.23438 40.2904C9.23438 40.9196 9.73976 41.4321 10.3689 41.4409H11.5194C12.1485 41.4321 12.6539 40.9196 12.6539 40.2904C12.6539 39.6612 12.1485 39.1487 11.5194 39.14Z" fill="url(#paint4_linear_39_843)"/>
<defs>
<linearGradient id="paint0_linear_39_843" x1="34.5077" y1="0.0259399" x2="34.5077" y2="61" gradientUnits="userSpaceOnUse">
<stop stop-color="#3F6AFE" stop-opacity="0.76"/>
<stop offset="1" stop-color="#00D2C7"/>
</linearGradient>
<linearGradient id="paint1_linear_39_843" x1="28.2013" y1="39.1414" x2="28.2013" y2="41.4423" gradientUnits="userSpaceOnUse">
<stop stop-color="#3F6AFE"/>
<stop offset="1" stop-color="#00D2C7"/>
</linearGradient>
<linearGradient id="paint2_linear_39_843" x1="16.5451" y1="39.14" x2="16.5451" y2="41.4409" gradientUnits="userSpaceOnUse">
<stop stop-color="#3F6AFE"/>
<stop offset="1" stop-color="#00D2C7"/>
</linearGradient>
<linearGradient id="paint3_linear_39_843" x1="22.5854" y1="39.14" x2="22.5854" y2="41.4409" gradientUnits="userSpaceOnUse">
<stop stop-color="#3F6AFE"/>
<stop offset="1" stop-color="#00D2C7"/>
</linearGradient>
<linearGradient id="paint4_linear_39_843" x1="10.9441" y1="39.14" x2="10.9441" y2="41.4409" gradientUnits="userSpaceOnUse">
<stop stop-color="#3F6AFE"/>
<stop offset="1" stop-color="#00D2C7"/>
</linearGradient>
</defs>
</svg>
